<svg width="22" height="10" viewBox="0 0 22 10" fill="none" xmlns="http://www.w3.org/2000/svg">
<path d="M4.73787 6.63478C4.78529 6.65244 4.82029 6.68168 4.84288 6.72249C4.86547 6.76331 4.87592 6.8077 4.87425 6.85567C4.87397 6.86366 4.86058 6.90322 4.83408 6.97434C4.81586 7.03774 4.7848 7.12471 4.74092 7.23525C4.70531 7.33807 4.65315 7.45632 4.58444 7.59C4.51602 7.71569 4.43132 7.84882 4.33035 7.98938C3.77587 8.73848 3.03891 9.09698 2.11947 9.06487C1.72771 9.05119 1.41609 8.92024 1.18461 8.67201C0.953133 8.42378 0.775438 8.1254 0.651526 7.77686C0.535609 7.4286 0.464364 7.06189 0.43779 6.67673C0.411495 6.28357 0.403373 5.94308 0.413424 5.65526C0.434364 5.05562 0.507551 4.44981 0.632985 3.83781C0.766695 3.2181 0.938285 2.65975 1.14776 2.16276C1.21758 1.99709 1.30809 1.81214 1.41929 1.6079C1.53076 1.39566 1.65753 1.20396 1.79959 1.03282C1.94992 0.853955 2.11513 0.707632 2.29521 0.593847C2.48357 0.472347 2.68568 0.415365 2.90155 0.422904C3.25333 0.435188 3.55505 0.505761 3.80671 0.634623C4.05864 0.755489 4.26479 0.926788 4.42515 1.14852C4.58579 1.36226 4.70106 1.61443 4.77096 1.90505C4.84913 2.18795 4.88236 2.4973 4.87063 2.83309C4.86896 2.88106 4.84743 2.92434 4.80606 2.96292C4.77296 2.99378 4.73243 3.00838 4.68446 3.0067C4.63649 3.00503 4.59307 2.9875 4.55421 2.95412C4.52363 2.91303 4.50918 2.8685 4.51085 2.82053C4.51616 2.66862 4.50673 2.48018 4.48256 2.2552C4.4584 2.03022 4.38998 1.8117 4.27732 1.59963C4.17292 1.37986 4.01131 1.1941 3.79247 1.04237C3.57391 0.882649 3.27275 0.796086 2.88898 0.782685C2.64913 0.774309 2.40453 0.90185 2.15518 1.16531C1.91383 1.42905 1.68842 1.80941 1.47895 2.3064C1.27803 2.78768 1.11513 3.32633 0.990253 3.92233C0.865656 4.51034 0.793307 5.09217 0.773205 5.66782C0.7679 5.81973 0.765615 5.99976 0.766352 6.20791C0.775083 6.41634 0.79153 6.63305 0.815693 6.85803C0.84813 7.07529 0.89256 7.29298 0.948983 7.51108C1.0134 7.72946 1.09451 7.92841 1.1923 8.10793C1.29837 8.27974 1.42554 8.42026 1.57382 8.52951C1.73009 8.63903 1.91616 8.69756 2.13203 8.70509C2.43585 8.7157 2.71749 8.67351 2.97697 8.5785C3.23644 8.4835 3.46919 8.35154 3.67521 8.18263C3.88151 8.00572 4.0568 7.79972 4.2011 7.56461C4.34567 7.32151 4.45096 7.05702 4.51698 6.77115C4.53465 6.72374 4.56388 6.68874 4.6047 6.66615C4.64551 6.64356 4.6899 6.6331 4.73787 6.63478ZM5.93965 1.21341C5.93965 1.21341 5.93189 1.32121 5.91635 1.5368C5.9011 1.74439 5.87947 2.01981 5.85148 2.36304C5.83148 2.70655 5.8058 3.09789 5.77446 3.53706C5.75111 3.97652 5.72334 4.42782 5.69116 4.89098C5.6559 5.44209 5.6266 5.93737 5.60325 6.37682C5.58018 6.80828 5.56278 7.1919 5.55105 7.5277C5.5424 7.77555 5.53514 7.98342 5.52927 8.15132C5.5314 8.3195 5.53066 8.45555 5.52703 8.55949C5.53139 8.6637 5.53673 8.73994 5.54305 8.78819C5.54937 8.83644 5.55212 8.87256 5.55128 8.89654C5.58214 8.92964 5.59688 8.96617 5.59548 9.00615C5.5938 9.05412 5.57228 9.0974 5.53091 9.13598C5.49781 9.16684 5.45728 9.18143 5.40931 9.17976C5.35334 9.1778 5.30607 9.15614 5.26749 9.11477C5.23663 9.08167 5.21432 9.03286 5.20056 8.96834C5.1948 8.9041 5.18713 8.77976 5.17756 8.59531C5.17348 8.4831 5.17009 8.35091 5.1674 8.19872C5.1727 8.04681 5.17885 7.87092 5.18583 7.67104C5.20928 6.99945 5.2524 6.10841 5.31519 4.99793C5.34794 4.51878 5.37626 4.05148 5.40017 3.59604C5.43208 3.14087 5.46217 2.73768 5.49044 2.38645C5.51899 2.02723 5.54104 1.73982 5.55657 1.52423C5.57238 1.30065 5.58043 1.18486 5.58071 1.17686C5.58238 1.12889 5.59977 1.08948 5.63287 1.05861C5.67396 1.02803 5.71849 1.01357 5.76646 1.01525C5.81443 1.01692 5.85371 1.03831 5.8843 1.0794C5.92315 1.11278 5.94161 1.15745 5.93965 1.21341ZM6.6288 4.95975C6.58722 5.4626 6.5535 5.96973 6.52764 6.48114C6.50205 6.98456 6.48047 7.48811 6.46288 7.9918C6.4492 8.38357 6.44356 8.65954 6.44597 8.81972C6.44866 8.97191 6.45331 9.06813 6.45991 9.10838C6.48278 9.1412 6.49351 9.1776 6.49212 9.21757C6.49044 9.26554 6.46906 9.30482 6.42797 9.3354C6.39459 9.37426 6.35391 9.39285 6.30594 9.39118C6.21 9.38783 6.15144 9.34576 6.13024 9.26497C6.10877 9.19218 6.09529 9.11966 6.08981 9.04743C6.08349 8.99918 6.08145 8.94307 6.08368 8.87911C6.08591 8.81515 6.08457 8.73906 6.07964 8.65083C6.10142 8.02721 6.12706 7.40773 6.15655 6.79238C6.18604 6.17704 6.22367 5.55797 6.26943 4.93519C6.27362 4.81526 6.27711 4.71532 6.2799 4.63537C6.29097 4.54771 6.29678 4.49588 6.29734 4.47989C6.29902 4.43192 6.3164 4.3925 6.3495 4.36164C6.38288 4.32278 6.42755 4.30432 6.48351 4.30628C6.53148 4.30795 6.57076 4.32934 6.60135 4.37043C6.6402 4.40381 6.6588 4.44448 6.65712 4.49245C6.65628 4.51644 6.65047 4.56827 6.63968 4.64794C6.63717 4.71989 6.63354 4.82383 6.6288 4.95975ZM6.39024 3.88277C6.30285 3.8637 6.23643 3.81736 6.19097 3.74373C6.1535 3.67037 6.13631 3.58973 6.13938 3.50178C6.14552 3.32589 6.23008 3.19676 6.39305 3.1144C6.36219 3.0813 6.34746 3.04476 6.34885 3.00479C6.35081 2.94882 6.36833 2.90541 6.40143 2.87454C6.44252 2.84396 6.48705 2.8295 6.53502 2.83118C6.79886 2.84039 6.92632 2.97292 6.91738 3.22876C6.91236 3.37268 6.86322 3.51905 6.76997 3.66789C6.68471 3.817 6.55813 3.88863 6.39024 3.88277ZM10.2443 6.63495C10.3312 6.67 10.3726 6.74349 10.3687 6.85542C10.3602 6.87113 10.3076 7.00138 10.211 7.24616C10.1224 7.49121 9.98883 7.76272 9.81033 8.06067C9.7168 8.2175 9.60741 8.36978 9.48218 8.5175C9.36495 8.6655 9.23228 8.79695 9.08418 8.91185C8.93608 9.02675 8.77682 9.11725 8.60641 9.18334C8.436 9.24943 8.25086 9.27899 8.05098 9.27201C7.82712 9.26419 7.64588 9.18182 7.50727 9.02488C7.37666 8.86823 7.27914 8.68071 7.21473 8.46233C7.15031 8.24395 7.11016 8.01841 7.09427 7.78571C7.07866 7.54502 7.07378 7.34073 7.07965 7.17283C7.08384 7.0529 7.09727 6.89728 7.11997 6.70595C7.14294 6.50663 7.17832 6.29574 7.22611 6.07327C7.2739 5.8508 7.33369 5.62876 7.40547 5.40713C7.47753 5.1775 7.56474 4.97242 7.6671 4.79188C7.76946 4.61134 7.88656 4.46734 8.01839 4.35988C8.15849 4.2447 8.3125 4.19004 8.48039 4.1959C8.77621 4.20623 9.00086 4.30613 9.15435 4.4956C9.30783 4.68508 9.37968 4.91973 9.36991 5.19956C9.36405 5.36745 9.3262 5.53424 9.25638 5.6999C9.19455 5.86584 9.1013 6.01468 8.97662 6.14641C8.86023 6.27042 8.72054 6.37361 8.55757 6.45597C8.39487 6.53034 8.20959 6.56389 8.00171 6.55663C7.95374 6.55496 7.91033 6.53743 7.87147 6.50406C7.84061 6.47096 7.82615 6.42643 7.82811 6.37046C7.82978 6.32249 7.84717 6.28307 7.88026 6.25221C7.92164 6.21363 7.96631 6.19518 8.01428 6.19685C8.16619 6.20216 8.29908 6.17878 8.41297 6.12672C8.53513 6.06695 8.63786 5.99049 8.72116 5.89734C8.81274 5.79648 8.88061 5.68678 8.92477 5.56825C8.97721 5.442 9.00566 5.31491 9.01013 5.18699C9.01655 5.0031 8.97774 4.85366 8.8937 4.73866C8.80167 4.62337 8.65971 4.56238 8.46783 4.55568C8.3559 4.55177 8.24145 4.61982 8.1245 4.75982C8.00782 4.89183 7.90104 5.08422 7.80416 5.337C7.69928 5.58949 7.61314 5.87866 7.54573 6.20451C7.48631 6.53063 7.45088 6.85759 7.43943 7.18539C7.43608 7.28134 7.43505 7.42539 7.43634 7.61755C7.44563 7.80999 7.47091 8.00299 7.51218 8.19655C7.55373 8.38211 7.61597 8.54839 7.69889 8.69537C7.79008 8.83464 7.91164 8.90692 8.06354 8.91223C8.27142 8.91949 8.46112 8.87408 8.63264 8.77601C8.81244 8.67022 8.9731 8.53974 9.1146 8.38459C9.26437 8.22171 9.39458 8.04615 9.50522 7.8579C9.61585 7.66964 9.71008 7.49283 9.7879 7.32744C9.86572 7.16206 9.92257 7.02396 9.95846 6.91314C10.0023 6.80261 10.0243 6.74734 10.0243 6.74734C10.0593 6.66051 10.1128 6.61835 10.1848 6.62086C10.2088 6.6217 10.2286 6.6264 10.2443 6.63495ZM13.4494 8.34385C13.4436 8.51174 13.4379 8.67564 13.4323 8.83555C13.4267 8.99545 13.4308 9.10766 13.4445 9.17218C13.452 9.18845 13.4593 9.20872 13.4664 9.23298C13.4739 9.24925 13.4773 9.26538 13.4767 9.28137C13.4751 9.32934 13.4535 9.37262 13.4122 9.4112C13.3791 9.44206 13.3385 9.45665 13.2906 9.45498C13.1786 9.45107 13.1124 9.40073 13.0917 9.30395C13.0794 9.19945 13.0747 9.10323 13.0778 9.01528C13.0729 8.92706 13.0724 8.82698 13.0763 8.71505C13.0804 8.59512 13.0849 8.4672 13.0897 8.33128C13.1 8.03546 13.1072 7.71552 13.1112 7.37145C13.1232 7.02766 13.1191 6.68731 13.0988 6.35039C13.0747 5.89328 13.0301 5.56752 12.9648 5.37312C12.8998 5.17073 12.8364 5.04044 12.7743 4.98224C12.7515 4.94942 12.7281 4.93259 12.7041 4.93175C12.6804 4.92292 12.6605 4.91823 12.6445 4.91767C12.5566 4.9146 12.4537 4.99506 12.3359 5.15904C12.2344 5.3156 12.143 5.52454 12.0619 5.78586C11.981 6.03919 11.9075 6.30879 11.8415 6.59466C11.7755 6.88053 11.7177 7.15869 11.6683 7.42913C11.6271 7.69185 11.5913 7.91474 11.5609 8.09779C11.5313 8.25685 11.502 8.40792 11.473 8.551C11.4523 8.68635 11.432 8.80972 11.4121 8.92109C11.3847 9.0162 11.3577 9.10331 11.3309 9.18242C11.2782 9.31666 11.1998 9.38197 11.0959 9.37834C11.0719 9.3775 11.0362 9.36825 10.9888 9.35058C10.9497 9.3252 10.9152 9.27997 10.8855 9.2149C10.8577 9.09385 10.8379 8.97309 10.8261 8.8526C10.8143 8.73212 10.8026 8.60763 10.7911 8.47915C10.7498 7.82931 10.7284 7.18017 10.727 6.53173C10.7259 5.87529 10.7367 5.22327 10.7593 4.57567C10.753 4.52742 10.7664 4.48786 10.7995 4.457C10.8408 4.41842 10.8855 4.39996 10.9335 4.40164C10.9895 4.40359 11.0327 4.42512 11.0633 4.46621C11.0942 4.49931 11.1128 4.53998 11.1191 4.58823C11.1191 4.58823 11.117 4.64819 11.1128 4.76812C11.1086 4.88805 11.107 5.04809 11.108 5.24825C11.1091 5.4484 11.1091 5.67654 11.1082 5.93267C11.1075 6.1808 11.1064 6.44092 11.1049 6.71303C11.1072 7.10535 11.1116 7.43771 11.1181 7.7101C11.1249 7.9745 11.1332 8.19492 11.1431 8.37137C11.2058 7.94931 11.2767 7.52352 11.3558 7.09402C11.4348 6.66451 11.5374 6.24784 11.6636 5.844C11.6998 5.72519 11.7445 5.59067 11.7978 5.44043C11.851 5.2902 11.916 5.14838 11.9927 5.01498C12.0774 4.88185 12.1773 4.77327 12.2923 4.68924C12.4076 4.5972 12.5412 4.55384 12.6931 4.55914C12.861 4.56501 12.9904 4.64157 13.0813 4.78883C13.1805 4.92838 13.2547 5.09507 13.304 5.28891C13.3612 5.48302 13.3984 5.68044 13.4154 5.88116C13.4406 6.07416 13.4553 6.22676 13.4594 6.33897C13.4797 6.67588 13.4835 7.02423 13.471 7.38401C13.4664 7.74407 13.4592 8.06402 13.4494 8.34385ZM17.1308 6.87543C17.2176 6.91048 17.2591 6.98397 17.2552 7.0959C17.2466 7.11161 17.194 7.24186 17.0974 7.48664C17.0088 7.73169 16.8753 8.0032 16.6968 8.30115C16.6032 8.45798 16.4938 8.61026 16.3686 8.75798C16.2514 8.90597 16.1187 9.03742 15.9706 9.15233C15.8225 9.26723 15.6632 9.35772 15.4928 9.42382C15.3224 9.48991 15.1373 9.51947 14.9374 9.51249C14.7135 9.50467 14.5323 9.42229 14.3937 9.26536C14.2631 9.10871 14.1656 8.92119 14.1012 8.70281C14.0367 8.48443 13.9966 8.25889 13.9807 8.02619C13.9651 7.7855 13.9602 7.58121 13.9661 7.41331C13.9703 7.29338 13.9837 7.13776 14.0064 6.94643C14.0294 6.74711 14.0647 6.53622 14.1125 6.31375C14.1603 6.09128 14.2201 5.86923 14.2919 5.6476C14.364 5.41798 14.4512 5.2129 14.5535 5.03236C14.6559 4.85182 14.773 4.70782 14.9048 4.60036C15.0449 4.48518 15.1989 4.43052 15.3668 4.43638C15.6626 4.44671 15.8873 4.54661 16.0408 4.73608C16.1943 4.92556 16.2661 5.16021 16.2563 5.44004C16.2505 5.60793 16.2126 5.77471 16.1428 5.94038C16.081 6.10632 15.9877 6.25516 15.8631 6.38689C15.7467 6.5109 15.607 6.61409 15.444 6.69645C15.2813 6.77082 15.096 6.80437 14.8881 6.79711C14.8402 6.79544 14.7968 6.77791 14.7579 6.74454C14.727 6.71144 14.7126 6.66691 14.7145 6.61094C14.7162 6.56297 14.7336 6.52355 14.7667 6.49269C14.8081 6.45411 14.8527 6.43566 14.9007 6.43733C15.0526 6.44264 15.1855 6.41926 15.2994 6.3672C15.4216 6.30743 15.5243 6.23097 15.6076 6.13782C15.6992 6.03695 15.767 5.92726 15.8112 5.80873C15.8636 5.68248 15.8921 5.55539 15.8966 5.42747C15.903 5.24358 15.8642 5.09414 15.7801 4.97914C15.6881 4.86385 15.5461 4.80286 15.3543 4.79616C15.2423 4.79225 15.1279 4.8603 15.0109 5.0003C14.8942 5.13231 14.7875 5.3247 14.6906 5.57748C14.5857 5.82997 14.4996 6.11914 14.4322 6.44499C14.3727 6.77111 14.3373 7.09807 14.3259 7.42587C14.3225 7.52181 14.3215 7.66587 14.3228 7.85803C14.3321 8.05047 14.3573 8.24347 14.3986 8.43703C14.4402 8.62259 14.5024 8.78886 14.5853 8.93585C14.6765 9.07512 14.7981 9.1474 14.95 9.15271C15.1578 9.15997 15.3475 9.11456 15.5191 9.01648C15.6989 8.9107 15.8595 8.78022 16.001 8.62507C16.1508 8.46219 16.281 8.28663 16.3916 8.09838C16.5023 7.91012 16.5965 7.73331 16.6743 7.56792C16.7521 7.40254 16.809 7.26444 16.8449 7.15362C16.8888 7.04308 16.9107 6.98782 16.9107 6.98782C16.9458 6.90099 16.9993 6.85883 17.0712 6.86134C17.0952 6.86218 17.1151 6.86687 17.1308 6.87543ZM17.4032 5.22793C17.4052 5.17197 17.4227 5.12855 17.4558 5.09769C17.4969 5.0671 17.5414 5.05265 17.5894 5.05432L18.4529 5.08448C18.4685 4.63675 18.4834 4.20901 18.4977 3.80126C18.5202 3.38579 18.5369 3.02215 18.5478 2.71034C18.5669 2.39082 18.5799 2.13511 18.5866 1.94323C18.6015 1.74363 18.609 1.64383 18.609 1.64383C18.6107 1.59586 18.6281 1.55644 18.6612 1.52558C18.7026 1.487 18.7472 1.46855 18.7952 1.47022C18.8432 1.4719 18.8825 1.49328 18.913 1.53437C18.9519 1.56775 18.9705 1.60842 18.9688 1.6564C18.9424 2.18379 18.9149 2.74317 18.8862 3.33453C18.8658 3.91818 18.8413 4.50568 18.8126 5.09704L19.6761 5.12719C19.7241 5.12887 19.7635 5.14626 19.7944 5.17935C19.8332 5.21273 19.8517 5.2574 19.8497 5.31337C19.8481 5.36134 19.8265 5.40461 19.7852 5.44319C19.7521 5.47406 19.7115 5.48865 19.6636 5.48697L18.8001 5.45682C18.7798 5.80833 18.7639 6.14798 18.7525 6.47578C18.7413 6.79559 18.7307 7.0994 18.7207 7.38723C18.702 7.9229 18.6863 8.37063 18.6738 8.73041C18.6695 9.08247 18.6738 9.30276 18.6867 9.39126C18.6941 9.40753 18.6973 9.43166 18.6962 9.46364C18.6945 9.51161 18.673 9.55488 18.6316 9.59346C18.5985 9.62433 18.558 9.63892 18.51 9.63725C18.462 9.63557 18.4188 9.61405 18.3802 9.57268C18.349 9.54757 18.3303 9.5109 18.324 9.46265C18.3179 9.4064 18.3143 9.2822 18.313 9.09004C18.3169 8.9781 18.3174 8.85004 18.3144 8.70585C18.3197 8.55394 18.3257 8.38205 18.3324 8.19017C18.3441 7.85437 18.3577 7.46661 18.373 7.02687C18.3887 6.57915 18.4104 6.0716 18.4382 5.50422L18.4403 5.44426L17.5768 5.4141C17.5289 5.41243 17.4854 5.3949 17.4466 5.36153C17.416 5.32043 17.4015 5.2759 17.4032 5.22793ZM20.4168 8.68321C20.5528 8.68796 20.663 8.73984 20.7476 8.83885C20.8405 8.93015 20.8845 9.04375 20.8798 9.17967C20.8751 9.31559 20.8268 9.43798 20.7349 9.54684C20.651 9.65598 20.5332 9.70789 20.3812 9.70259C20.2213 9.69701 20.0948 9.65256 20.0017 9.56926C19.9165 9.48624 19.8756 9.39676 19.879 9.30082C19.8826 9.19688 19.9334 9.1186 20.0312 9.06599C20.1049 9.02053 20.1937 8.99962 20.2976 9.00324C20.2507 8.96959 20.2284 8.92078 20.2307 8.85682C20.2323 8.80885 20.2497 8.76943 20.2828 8.73857C20.3242 8.69999 20.3689 8.68154 20.4168 8.68321ZM20.4058 9.34323C20.4461 9.33663 20.4747 9.31762 20.4918 9.2862C20.5092 9.24678 20.5186 9.20708 20.52 9.16711C20.5217 9.11914 20.5107 9.09073 20.487 9.0819C20.4878 9.05792 20.4642 9.04509 20.4163 9.04341C20.4626 9.09306 20.4849 9.14187 20.4832 9.18984C20.4812 9.2458 20.4554 9.29693 20.4058 9.34323Z" fill="black"/>
</svg>
