<svg width="56" height="56" viewBox="0 0 56 56" fill="none" xmlns="http://www.w3.org/2000/svg"><path d="M25.1992 18H37.9988V30.7999" stroke="currentColor"/><path d="M38 18L23.7236 32.2768" stroke="currentColor"/><path d="M33.1995 30.6439V33.2287C33.1995 34.8805 33.1995 35.7065 32.8831 36.3396C32.5927 36.9208 32.1215 37.3919 31.5404 37.6823C30.9072 37.9987 30.0813 37.9987 28.4295 37.9987H22.77C21.1181 37.9987 20.2922 37.9987 19.6591 37.6823C19.0779 37.3919 18.6067 36.9208 18.3164 36.3396C18 35.7065 18 34.8805 18 33.2287V27.5688C18 25.917 18 25.091 18.3164 24.4579C18.6067 23.8768 19.0779 23.4056 19.6591 23.1152C20.2922 22.7988 21.1181 22.7988 22.77 22.7988L25.1094 22.7988" stroke="currentColor"/></svg>