<svg width="780" height="776" viewBox="0 0 780 776" fill="none" xmlns="http://www.w3.org/2000/svg">
    <line x1="77.541" y1="72.2398" x2="0.895831" y2="369.76" stroke="black" />
    <line y1="-0.5" x2="278.543" y2="-0.5"
        transform="matrix(-0.247861 0.968796 -0.967966 -0.25108 131.856 62.996)" stroke="black" />
    <line y1="-0.5" x2="260.369" y2="-0.5"
        transform="matrix(-0.228341 0.973581 -0.962488 -0.271324 186.866 53.6268)" stroke="black" />
    <line y1="-0.5" x2="236.094" y2="-0.5"
        transform="matrix(-0.225757 0.974184 -0.961701 -0.274101 232.008 45.9383)" stroke="black" />
    <line y1="-0.5" x2="221.46" y2="-0.5"
        transform="matrix(-0.213545 0.976933 -0.957766 -0.287549 269.053 39.6289)" stroke="black" />
    <line y1="-0.5" x2="205.945" y2="-0.5"
        transform="matrix(-0.183337 0.98305 -0.946303 -0.323281 321.964 30.6172)" stroke="black" />
    <line y1="-0.5" x2="185.783" y2="-0.5"
        transform="matrix(-0.16301 0.986624 -0.936936 -0.349501 369.693 22.4881)" stroke="black" />
    <line y1="-0.5" x2="170.564" y2="-0.5"
        transform="matrix(-0.126563 0.991959 -0.915864 -0.40149 416.69 0.282104)" stroke="black" />
    <line x1="0.818124" y1="369.345" x2="181.453" y2="621.565" stroke="black" />
    <line y1="-0.5" x2="281.23" y2="-0.5"
        transform="matrix(0.580832 0.814024 -0.811982 0.583683 62.8158 332.847)" stroke="black" />
    <line y1="-0.5" x2="262.54" y2="-0.5"
        transform="matrix(0.563415 0.826174 -0.79889 0.601477 127.413 307.117)" stroke="black" />
    <line y1="-0.5" x2="238.024" y2="-0.5"
        transform="matrix(0.561093 0.827753 -0.79706 0.603899 178.708 275.938)" stroke="black" />
    <line y1="-0.5" x2="223.096" y2="-0.5"
        transform="matrix(0.550069 0.835119 -0.788086 0.615565 221.761 255.981)" stroke="black" />
    <line y1="-0.5" x2="207.086" y2="-0.5"
        transform="matrix(0.522444 0.852674 -0.763307 0.646036 284.206 233.072)" stroke="black" />
    <line y1="-0.5" x2="186.594" y2="-0.5"
        transform="matrix(0.503573 0.863952 -0.744252 0.667899 339.409 205.786)" stroke="black" />
    <line y1="-0.5" x2="170.979" y2="-0.5"
        transform="matrix(0.469187 0.883099 -0.704235 0.709967 395.103 169.475)" stroke="black" />
    <line x1="181.255" y1="621.402" x2="287.689" y2="670.433" stroke="black" />
    <line y1="-0.5" x2="105.997" y2="-0.5"
        transform="matrix(0.907387 0.420295 -0.416521 0.909126 226.163 561.775)" stroke="black" />
    <line y1="-0.5" x2="96.3449" y2="-0.5"
        transform="matrix(0.896172 0.443706 -0.393329 0.919398 275.332 524.021)" stroke="black" />
    <line y1="-0.5" x2="87.0369" y2="-0.5"
        transform="matrix(0.894597 0.446874 -0.390219 0.920722 312.262 472.963)" stroke="black" />
    <line y1="-0.5" x2="80.2071" y2="-0.5"
        transform="matrix(0.886847 0.462062 -0.375401 0.926862 344.479 442.293)" stroke="black" />
    <line y1="-0.5" x2="71.3513" y2="-0.5"
        transform="matrix(0.865323 0.501215 -0.33788 0.941189 392.397 409.649)" stroke="black" />
    <line y1="-0.5" x2="62.4536" y2="-0.5"
        transform="matrix(0.84872 0.528842 -0.311946 0.9501 433.373 366.995)" stroke="black" />
    <line y1="-0.5" x2="54.3055" y2="-0.5"
        transform="matrix(0.813961 0.58092 -0.264107 0.964493 475.324 320.466)" stroke="black" />
    <line x1="287.514" y1="670.388" x2="578.294" y2="690.46" stroke="black" />
    <line y1="-0.5" x2="263.338" y2="-0.5"
        transform="matrix(0.997555 0.0698856 -0.0678511 0.997695 322.344 606.325)" stroke="black" />
    <line y1="-0.5" x2="235.768" y2="-0.5"
        transform="matrix(0.996565 0.0828111 -0.055628 0.998452 361.674 566.77)" stroke="black" />
    <line y1="-0.5" x2="212.539" y2="-0.5"
        transform="matrix(0.996415 0.0846025 -0.0540239 0.99854 390.124 511.857)" stroke="black" />
    <line y1="-0.5" x2="193.836" y2="-0.5"
        transform="matrix(0.995634 0.0933401 -0.0464879 0.998919 415.611 479.354)" stroke="black" />
    <line y1="-0.5" x2="167.541" y2="-0.5"
        transform="matrix(0.993119 0.117109 -0.0281356 0.999604 454.139 445.411)" stroke="black" />
    <line y1="-0.5" x2="143.431" y2="-0.5"
        transform="matrix(0.990831 0.13511 -0.016 0.999872 486.378 400.023)" stroke="black" />
    <line y1="-0.5" x2="119.041" y2="-0.5"
        transform="matrix(0.985025 0.172411 0.00537747 0.999985 519.526 352.013)" stroke="black" />
    <line x1="578.454" y1="690.498" x2="779.486" y2="774.944" stroke="black" />
    <line y1="-0.5" x2="197.206" y2="-0.5"
        transform="matrix(0.921178 0.389141 -0.385419 0.922742 585.038 624.729)" stroke="black" />
    <line y1="-0.5" x2="178.932" y2="-0.5"
        transform="matrix(0.911053 0.412289 -0.362615 0.931939 596.632 586.294)" stroke="black" />
    <line y1="-0.5" x2="161.606" y2="-0.5"
        transform="matrix(0.909625 0.41543 -0.359565 0.93312 601.902 529.838)" stroke="black" />
    <line y1="-0.5" x2="148.748" y2="-0.5"
        transform="matrix(0.902581 0.43052 -0.345059 0.938581 608.6 497.446)" stroke="black" />
    <line y1="-0.5" x2="131.907" y2="-0.5"
        transform="matrix(0.882851 0.469653 -0.308507 0.951222 620.527 465.032)" stroke="black" />
    <line y1="-0.5" x2="115.19" y2="-0.5"
        transform="matrix(0.867476 0.497479 -0.283389 0.959005 628.494 419.402)" stroke="black" />
    <line y1="-0.5" x2="99.7019" y2="-0.5"
        transform="matrix(0.834879 0.550433 -0.237342 0.971426 636.785 372.537)" stroke="black" />
</svg>