<svg width="18" height="10" viewBox="0 0 18 10" fill="none" xmlns="http://www.w3.org/2000/svg">
<path d="M5.976 5.56C6.168 5.608 6.264 5.728 6.264 5.92C6.264 6.032 6.232 6.184 6.168 6.376C6.12 6.568 6.056 6.768 5.976 6.976C5.912 7.168 5.84 7.36 5.76 7.552C5.68 7.728 5.616 7.864 5.568 7.96C4.832 9.32 3.808 10 2.496 10C2.048 10 1.68 9.856 1.392 9.568C1.12 9.264 0.912 8.904 0.768 8.488C0.624 8.056 0.528 7.616 0.48 7.168C0.432 6.704 0.408 6.304 0.408 5.968C0.408 5.6 0.44 5.088 0.504 4.432C0.584 3.76 0.72 3.104 0.912 2.464C1.104 1.808 1.368 1.248 1.704 0.784C2.04 0.303999 2.472 0.0639992 3 0.0639992C3.56 0.0639992 4 0.239999 4.32 0.592C4.656 0.944 4.824 1.392 4.824 1.936C4.824 2.064 4.8 2.176 4.752 2.272C4.704 2.352 4.608 2.392 4.464 2.392C4.368 2.392 4.28 2.36 4.2 2.296C4.136 2.216 4.104 2.128 4.104 2.032C4.104 1.664 4.016 1.368 3.84 1.144C3.68 0.904 3.4 0.784 3 0.784C2.632 0.784 2.328 1.008 2.088 1.456C1.848 1.904 1.656 2.424 1.512 3.016C1.368 3.608 1.264 4.192 1.2 4.768C1.152 5.328 1.128 5.728 1.128 5.968C1.128 6.176 1.136 6.464 1.152 6.832C1.184 7.2 1.248 7.568 1.344 7.936C1.44 8.288 1.576 8.6 1.752 8.872C1.944 9.144 2.192 9.28 2.496 9.28C3.12 9.28 3.624 9.104 4.008 8.752C4.408 8.4 4.72 8.016 4.944 7.6C5.184 7.168 5.344 6.776 5.424 6.424C5.52 6.056 5.568 5.872 5.568 5.872C5.584 5.76 5.632 5.68 5.712 5.632C5.792 5.584 5.88 5.56 5.976 5.56ZM13.5253 7.768C13.5253 8.104 13.5253 8.432 13.5253 8.752C13.5253 9.072 13.5413 9.296 13.5733 9.424C13.5893 9.456 13.6053 9.496 13.6213 9.544C13.6373 9.576 13.6453 9.608 13.6453 9.64C13.6453 9.736 13.6053 9.824 13.5253 9.904C13.4613 9.968 13.3813 10 13.2853 10C13.0613 10 12.9253 9.904 12.8773 9.712C12.8453 9.504 12.8293 9.312 12.8293 9.136C12.8133 8.96 12.8053 8.76 12.8053 8.536C12.8053 8.296 12.8053 8.04 12.8053 7.768C12.8053 7.176 12.7973 6.536 12.7813 5.848C12.7813 5.16 12.7493 4.48 12.6853 3.808C12.6053 2.896 12.4933 2.248 12.3493 1.864C12.2053 1.464 12.0693 1.208 11.9413 1.096C11.8933 1.032 11.8453 0.999999 11.7973 0.999999C11.7493 0.983999 11.7093 0.976 11.6773 0.976C11.5013 0.976 11.3013 1.144 11.0773 1.48C10.8853 1.8 10.7173 2.224 10.5733 2.752C10.4293 3.264 10.3013 3.808 10.1893 4.384C10.0773 4.96 9.98131 5.52 9.90131 6.064C9.83731 6.592 9.78131 7.04 9.73331 7.408C9.68531 7.728 9.63731 8.032 9.58931 8.32C9.55731 8.592 9.52531 8.84 9.49331 9.064C9.44531 9.256 9.39731 9.432 9.34931 9.592C9.25331 9.864 9.10131 10 8.89331 10C8.84531 10 8.77331 9.984 8.67731 9.952C8.59731 9.904 8.52531 9.816 8.46131 9.688C8.39731 9.448 8.34931 9.208 8.31731 8.968C8.28531 8.728 8.25331 8.48 8.22131 8.224C8.09331 6.928 8.00531 5.632 7.95731 4.336C7.90931 3.024 7.88531 1.72 7.88531 0.424C7.86931 0.327999 7.89331 0.247999 7.95731 0.184C8.03731 0.103999 8.12531 0.0639992 8.22131 0.0639992C8.33331 0.0639992 8.42131 0.103999 8.48531 0.184C8.54931 0.247999 8.58931 0.327999 8.60531 0.424C8.60531 0.424 8.60531 0.544 8.60531 0.784C8.60531 1.024 8.61331 1.344 8.62931 1.744C8.64531 2.144 8.66131 2.6 8.67731 3.112C8.69331 3.608 8.70931 4.128 8.72531 4.672C8.75731 5.456 8.78931 6.12 8.82131 6.664C8.85331 7.192 8.88531 7.632 8.91731 7.984C9.01331 7.136 9.12531 6.28 9.25331 5.416C9.38131 4.552 9.55731 3.712 9.78131 2.896C9.84531 2.656 9.92531 2.384 10.0213 2.08C10.1173 1.776 10.2373 1.488 10.3813 1.216C10.5413 0.944 10.7333 0.72 10.9573 0.543999C11.1813 0.352 11.4453 0.256 11.7493 0.256C12.0853 0.256 12.3493 0.4 12.5413 0.688C12.7493 0.96 12.9093 1.288 13.0213 1.672C13.1493 2.056 13.2373 2.448 13.2853 2.848C13.3493 3.232 13.3893 3.536 13.4053 3.76C13.4693 4.432 13.5013 5.128 13.5013 5.848C13.5173 6.568 13.5253 7.208 13.5253 7.768ZM16.365 7.96C16.637 7.96 16.861 8.056 17.037 8.248C17.229 8.424 17.325 8.648 17.325 8.92C17.325 9.192 17.237 9.44 17.061 9.664C16.901 9.888 16.669 10 16.365 10C16.045 10 15.789 9.92 15.597 9.76C15.421 9.6 15.333 9.424 15.333 9.232C15.333 9.024 15.429 8.864 15.621 8.752C15.765 8.656 15.941 8.608 16.149 8.608C16.053 8.544 16.005 8.448 16.005 8.32C16.005 8.224 16.037 8.144 16.101 8.08C16.181 8 16.269 7.96 16.365 7.96ZM16.389 9.28C16.469 9.264 16.525 9.224 16.557 9.16C16.589 9.08 16.605 9 16.605 8.92C16.605 8.824 16.581 8.768 16.533 8.752C16.533 8.704 16.485 8.68 16.389 8.68C16.485 8.776 16.533 8.872 16.533 8.968C16.533 9.08 16.485 9.184 16.389 9.28Z" fill="black"/>
</svg>
