<svg width="21" height="18" viewBox="0 0 21 18" fill="none" xmlns="http://www.w3.org/2000/svg">
<path d="M9.096 12.96C9.192 12.992 9.264 13.048 9.312 13.128C9.36 13.208 9.384 13.296 9.384 13.392C9.384 13.408 9.36 13.488 9.312 13.632C9.28 13.76 9.224 13.936 9.144 14.16C9.08 14.368 8.984 14.608 8.856 14.88C8.728 15.136 8.568 15.408 8.376 15.696C7.32 17.232 5.872 18 4.032 18C3.248 18 2.616 17.76 2.136 17.28C1.656 16.8 1.28 16.216 1.008 15.528C0.752 14.84 0.584 14.112 0.504 13.344C0.424 12.56 0.384 11.88 0.384 11.304C0.384 10.104 0.488 8.888 0.696 7.656C0.92 6.408 1.224 5.28 1.608 4.272C1.736 3.936 1.904 3.56 2.112 3.144C2.32 2.712 2.56 2.32 2.832 1.968C3.12 1.6 3.44 1.296 3.792 1.056C4.16 0.799999 4.56 0.671999 4.992 0.671999C5.696 0.671999 6.304 0.791999 6.816 1.032C7.328 1.256 7.752 1.584 8.088 2.016C8.424 2.432 8.672 2.928 8.832 3.504C9.008 4.064 9.096 4.68 9.096 5.352C9.096 5.448 9.056 5.536 8.976 5.616C8.912 5.68 8.832 5.712 8.736 5.712C8.64 5.712 8.552 5.68 8.472 5.616C8.408 5.536 8.376 5.448 8.376 5.352C8.376 5.048 8.344 4.672 8.28 4.224C8.216 3.776 8.064 3.344 7.824 2.928C7.6 2.496 7.264 2.136 6.816 1.848C6.368 1.544 5.76 1.392 4.992 1.392C4.512 1.392 4.032 1.664 3.552 2.208C3.088 2.752 2.664 3.528 2.28 4.536C1.912 5.512 1.624 6.6 1.416 7.8C1.208 8.984 1.104 10.152 1.104 11.304C1.104 11.608 1.112 11.968 1.128 12.384C1.16 12.8 1.208 13.232 1.272 13.68C1.352 14.112 1.456 14.544 1.584 14.976C1.728 15.408 1.904 15.8 2.112 16.152C2.336 16.488 2.6 16.76 2.904 16.968C3.224 17.176 3.6 17.28 4.032 17.28C4.64 17.28 5.2 17.176 5.712 16.968C6.224 16.76 6.68 16.48 7.08 16.128C7.48 15.76 7.816 15.336 8.088 14.856C8.36 14.36 8.552 13.824 8.664 13.248C8.696 13.152 8.752 13.08 8.832 13.032C8.912 12.984 9 12.96 9.096 12.96ZM16.7597 15.768C16.7597 16.104 16.7597 16.432 16.7597 16.752C16.7597 17.072 16.7757 17.296 16.8077 17.424C16.8237 17.456 16.8397 17.496 16.8557 17.544C16.8717 17.576 16.8797 17.608 16.8797 17.64C16.8797 17.736 16.8397 17.824 16.7597 17.904C16.6957 17.968 16.6157 18 16.5197 18C16.2957 18 16.1597 17.904 16.1117 17.712C16.0797 17.504 16.0637 17.312 16.0637 17.136C16.0477 16.96 16.0397 16.76 16.0397 16.536C16.0397 16.296 16.0397 16.04 16.0397 15.768C16.0397 15.176 16.0317 14.536 16.0157 13.848C16.0157 13.16 15.9837 12.48 15.9197 11.808C15.8397 10.896 15.7277 10.248 15.5837 9.864C15.4397 9.464 15.3037 9.208 15.1757 9.096C15.1277 9.032 15.0797 9 15.0317 9C14.9837 8.984 14.9437 8.976 14.9117 8.976C14.7357 8.976 14.5357 9.144 14.3117 9.48C14.1197 9.8 13.9517 10.224 13.8077 10.752C13.6637 11.264 13.5357 11.808 13.4237 12.384C13.3117 12.96 13.2157 13.52 13.1357 14.064C13.0717 14.592 13.0157 15.04 12.9677 15.408C12.9197 15.728 12.8717 16.032 12.8237 16.32C12.7917 16.592 12.7597 16.84 12.7277 17.064C12.6797 17.256 12.6317 17.432 12.5837 17.592C12.4877 17.864 12.3357 18 12.1277 18C12.0797 18 12.0077 17.984 11.9117 17.952C11.8317 17.904 11.7597 17.816 11.6957 17.688C11.6317 17.448 11.5837 17.208 11.5517 16.968C11.5197 16.728 11.4877 16.48 11.4557 16.224C11.3277 14.928 11.2397 13.632 11.1917 12.336C11.1437 11.024 11.1197 9.72 11.1197 8.424C11.1037 8.328 11.1277 8.248 11.1917 8.184C11.2717 8.104 11.3597 8.064 11.4557 8.064C11.5677 8.064 11.6557 8.104 11.7197 8.184C11.7837 8.248 11.8237 8.328 11.8397 8.424C11.8397 8.424 11.8397 8.544 11.8397 8.784C11.8397 9.024 11.8477 9.344 11.8637 9.744C11.8797 10.144 11.8957 10.6 11.9117 11.112C11.9277 11.608 11.9437 12.128 11.9597 12.672C11.9917 13.456 12.0237 14.12 12.0557 14.664C12.0877 15.192 12.1197 15.632 12.1517 15.984C12.2477 15.136 12.3597 14.28 12.4877 13.416C12.6157 12.552 12.7917 11.712 13.0157 10.896C13.0797 10.656 13.1597 10.384 13.2557 10.08C13.3517 9.776 13.4717 9.488 13.6157 9.216C13.7757 8.944 13.9677 8.72 14.1917 8.544C14.4157 8.352 14.6797 8.256 14.9837 8.256C15.3197 8.256 15.5837 8.4 15.7757 8.688C15.9837 8.96 16.1437 9.288 16.2557 9.672C16.3837 10.056 16.4717 10.448 16.5197 10.848C16.5837 11.232 16.6237 11.536 16.6397 11.76C16.7037 12.432 16.7357 13.128 16.7357 13.848C16.7517 14.568 16.7597 15.208 16.7597 15.768ZM19.5994 15.96C19.8714 15.96 20.0954 16.056 20.2714 16.248C20.4634 16.424 20.5594 16.648 20.5594 16.92C20.5594 17.192 20.4714 17.44 20.2954 17.664C20.1354 17.888 19.9034 18 19.5994 18C19.2794 18 19.0234 17.92 18.8314 17.76C18.6554 17.6 18.5674 17.424 18.5674 17.232C18.5674 17.024 18.6634 16.864 18.8554 16.752C18.9994 16.656 19.1754 16.608 19.3834 16.608C19.2874 16.544 19.2394 16.448 19.2394 16.32C19.2394 16.224 19.2714 16.144 19.3354 16.08C19.4154 16 19.5034 15.96 19.5994 15.96ZM19.6234 17.28C19.7034 17.264 19.7594 17.224 19.7914 17.16C19.8234 17.08 19.8394 17 19.8394 16.92C19.8394 16.824 19.8154 16.768 19.7674 16.752C19.7674 16.704 19.7194 16.68 19.6234 16.68C19.7194 16.776 19.7674 16.872 19.7674 16.968C19.7674 17.08 19.7194 17.184 19.6234 17.28Z" fill="black"/>
</svg>
